<svg height="512pt" viewBox="-10 0 512 512.001" width="512pt" xmlns="http://www.w3.org/2000/svg"><path d="m214.65625 292.714844h-192.988281c-8.824219 0-8.824219-13.339844 0-13.339844h174.289062c9.917969 0 9.929688-14.996094 0-14.996094h-159.503906v-221.042968h407.183594v221.042968h-48.269531c-9.914063 0-9.933594 14.996094 0 14.996094h65.769531c8.820312 0 8.820312 13.339844 0 13.339844h-83.128907c-9.914062 0-9.929687 15 0 15h83.128907c11.945312 0 21.664062-9.722656 21.664062-21.667969 0-11.949219-9.71875-21.667969-21.664062-21.667969h-2.5v-221.042968h2.5c11.945312 0 21.664062-9.722657 21.664062-21.667969 0-11.949219-9.71875-21.667969-21.664062-21.667969h-439.46875c-11.949219 0-21.667969 9.71875-21.667969 21.667969 0 11.875 9.605469 21.550781 21.453125 21.667969v221.042968c-11.847656.117188-21.453125 9.789063-21.453125 21.667969 0 11.945313 9.71875 21.667969 21.667969 21.667969h192.988281c9.914062 0 9.929688-15 0-15zm-192.988281-277.714844h439.46875c8.820312 0 8.820312 13.335938 0 13.335938h-439.46875c-8.828125 0-8.816407-13.335938 0-13.335938zm0 0"/><path d="m129.078125 70.464844c0-6.585938-5.359375-11.941406-11.945313-11.941406h-47.082031c-6.585937 0-11.941406 5.355468-11.941406 11.941406v29.085937c0 6.585938 5.355469 11.941407 11.941406 11.941407h47.082031c6.585938 0 11.945313-5.355469 11.945313-11.941407zm-15 26.027344h-40.972656v-22.972657h40.972656zm0 0"/><path d="m129.078125 139.96875c0-6.585938-5.359375-11.941406-11.945313-11.941406h-47.082031c-6.585937 0-11.941406 5.355468-11.941406 11.941406v29.085938c0 6.585937 5.355469 11.941406 11.941406 11.941406h47.082031c6.585938 0 11.945313-5.355469 11.945313-11.941406zm-15 26.027344h-40.972656v-22.972656h40.972656zm0 0"/><path d="m117.132812 197.53125h-47.082031c-6.585937 0-11.941406 5.355469-11.941406 11.941406v29.085938c0 6.585937 5.355469 11.941406 11.941406 11.941406h47.082031c6.585938 0 11.945313-5.355469 11.945313-11.941406v-29.085938c0-6.585937-5.359375-11.941406-11.945313-11.941406zm-3.054687 37.972656h-40.972656v-22.976562h40.972656zm0 0"/><path d="m446.351562 340.78125c-8.167968-3.511719-16.734374-6.019531-25.460937-7.71875l-75.988281-14.773438v-18.777343c21.339844-14.554688 32.890625-35.171875 35.40625-58.324219 11.074218-.878906 19.820312-10.171875 19.820312-21.46875v-15.414062c18.058594-7.851563 15.617188-34.203126-3.488281-38.648438v-5.953125c0-53.480469-43.355469-96.839844-96.839844-96.839844h-8.117187c-53.484375 0-96.839844 43.359375-96.839844 96.839844v5.949219c-19.097656 4.445312-21.546875 30.800781-3.484375 38.652344v15.410156c0 11.300781 8.742187 20.59375 19.820313 21.46875 2.503906 23.046875 13.914062 43.667968 35.40625 58.328125v18.773437l-75.988282 14.777344c-8.726562 1.699219-17.292968 4.203125-25.460937 7.71875-30.832031 13.269531-45.875 34.453125-45.875 64.375v15.40625c0 9.914062 14.996093 9.929688 14.996093 0v-15.402344c0-22.472656 10.210938-38.011718 32.609376-48.746094.902343 3.992188 14.644531 41.292969 14.644531 93.410157v47.179687h-31.691407c-8.59375 0-15.5625-6.96875-15.5625-15.5625v-31.039062c0-9.914063-14.996093-9.929688-14.996093 0v31.039062c0 16.878906 13.679687 30.558594 30.558593 30.558594h331.847657c16.878906 0 30.558593-13.679688 30.558593-30.558594v-76.28125c0-29.925781-15.046874-51.109375-45.875-64.378906zm-15.714843 10.058594c-1.042969 4.578125-15.660157 43.929687-15.660157 98.984375v47.179687h-111.734374v-37.785156c0-11.234375 3.417968-22.03125 9.882812-31.21875 9.683594-13.769531 49.570312-71.320312 61.398438-88.671875 53.835937 10.839844 47.34375 8.59375 56.113281 11.511719zm-140.007813 68.527344c-5.753906-8.179688-13.226562-18.914063-21.027344-30.164063 2.316407-.511719 4.578126-1.402344 6.699219-2.671875l19.441407-11.660156 19.441406 11.660156c2.121094 1.269531 4.382812 2.160156 6.699218 2.671875-7.792968 11.246094-15.265624 21.976563-21.023437 30.164063-1.917969 2.726562-3.625 5.5625-5.117187 8.488281-1.488282-2.925781-3.195313-5.761719-5.113282-8.488281zm-10.195312-52.804688c-11.875 6.359375-11.03125 8.261719-16.425782 7.621094-3.355468-.398438-6.367187-2.265625-8.289062-5.046875-8.964844-12.984375-17.265625-25.03125-22.699219-32.933594l15.019531-2.917969c4.851563 14.734375 20.839844 26.453125 32.394532 33.277344zm78.035156-30.355469c-5.449219 7.917969-13.769531 20-22.757812 33.015625-3.667969 5.304688-10.242188 5.984375-12.8125 4.441406l-11.847657-7.101562c11.558594-6.824219 27.542969-18.542969 32.394531-33.277344zm-106.40625-248.097656v9.40625c0 9.914063 14.996094 9.929687 14.996094 0v-15.867187c6.730468-2.128907 13.835937-3.40625 21.1875-3.710938v37.082031c0 9.914063 14.996094 9.929688 14.996094 0v-37.082031c7.351562.304688 14.457031 1.585938 21.183593 3.710938v15.867187c0 9.914063 15 9.929687 15 0v-9.402344c46.882813 26.046875 41.898438 75.828125 42.21875 77.015625h-171.800781c.257812-.964844-4.421875-51.101562 42.21875-77.019531zm-52.585938 92.015625h192.535157c7.191406 0 7.179687 10.863281 0 10.863281h-192.535157c-7.191406 0-7.179687-10.863281 0-10.863281zm26.226563 53.46875c-.089844-4.078125-3.417969-7.335938-7.5-7.335938-1.25-.3125-11.84375 1.945313-11.84375-6.539062v-13.730469h178.773437v13.730469c0 8.472656-10.882812 6.296875-11.847656 6.539062-4.082031 0-7.414062 3.257813-7.5 7.335938-.402344 18.75-8.367187 36.164062-21.859375 47.777344-28.640625 24.660156-67.71875 24.664062-96.363281 0-13.492188-11.613282-21.460938-29.03125-21.859375-47.777344zm104.199219 74.199219v16.675781c0 13.410156-22.757813 27.609375-34.160156 33.347656-11.390626-5.734375-34.097657-19.898437-34.160157-33.292968 0-.015626 0-.035157 0-.054688v-16.675781c21.828125 9.414062 46.46875 9.425781 68.320313 0zm-169.050782 43.046875c8.757813-2.910156 2.25-.667969 56.109376-11.511719l4.285156 6.226563c4.371094 6.355468 10.421875 15.140624 17.128906 24.859374 12.234375 17.734376 29.109375 42.121094 39.988281 57.582032 6.464844 9.191406 9.882813 19.984375 9.882813 31.222656v37.78125h-111.734375v-47.179688c0-56.46875-14.261719-92.824218-15.660157-98.980468zm316.375 130.601562c0 8.578125-6.976562 15.558594-15.558593 15.558594h-31.691407v-47.175781c0-50.6875 14.089844-90.957031 14.648438-93.410157 22.394531 10.734376 32.605469 26.273438 32.605469 48.746094v76.28125zm0 0"/><path d="m336.625 433.785156c-7.070312 0-12.824219 5.753906-12.824219 12.824219v15.027344c0 7.074219 5.753907 12.824219 12.824219 12.824219h44.105469c7.070312 0 12.824219-5.75 12.824219-12.824219v-15.027344c0-7.070313-5.753907-12.824219-12.824219-12.824219zm41.929688 25.675782h-39.753907v-10.675782h39.753907zm0 0"/></svg>