<svg width="512" height="512" viewBox="0 0 512 512" fill="none" xmlns="http://www.w3.org/2000/svg">
<path d="M448 320.842V96C448 73.9453 430.055 56 408 56H392V40C392 26.7656 381.234 16 368 16C354.766 16 344 26.7656 344 40V56H304V40C304 26.7656 293.234 16 280 16C266.766 16 256 26.7656 256 40V56H208V40C208 26.7656 197.234 16 184 16C170.766 16 160 26.7656 160 40V56H120V40C120 26.7656 109.234 16 96 16C82.7656 16 72 26.7656 72 40V56H56C33.9453 56 16 73.9453 16 96V416C16 438.055 33.9453 456 56 456H324.988C341.617 484.646 372.557 504 408 504C460.938 504 504 460.938 504 408C504 369.349 480.995 336.047 448 320.842ZM360 40C360 35.5859 363.586 32 368 32C372.414 32 376 35.5859 376 40V88C376 92.4141 372.414 96 368 96C363.586 96 360 92.4141 360 88V40ZM272 40C272 35.5859 275.586 32 280 32C284.414 32 288 35.5859 288 40V88C288 92.4141 284.414 96 280 96C275.586 96 272 92.4141 272 88V40ZM176 40C176 35.5859 179.586 32 184 32C188.414 32 192 35.5859 192 40V88C192 92.4141 188.414 96 184 96C179.586 96 176 92.4141 176 88V40ZM88 40C88 35.5859 91.5859 32 96 32C100.414 32 104 35.5859 104 40V88C104 92.4141 100.414 96 96 96C91.5859 96 88 92.4141 88 88V40ZM56 72H72V88C72 101.234 82.7656 112 96 112C109.234 112 120 101.234 120 88V72H160V88C160 101.234 170.766 112 184 112C197.234 112 208 101.234 208 88V72H256V88C256 101.234 266.766 112 280 112C293.234 112 304 101.234 304 88V72H344V88C344 101.234 354.766 112 368 112C381.234 112 392 101.234 392 88V72H408C421.234 72 432 82.7656 432 96V136H32V96C32 82.7656 42.7656 72 56 72ZM56 440C42.7656 440 32 429.234 32 416V152H432V315.159C424.313 313.169 416.3 312 408 312C402.538 312 397.215 312.564 392 313.445V272C392 267.578 388.422 264 384 264H336C331.578 264 328 267.578 328 272V320C328 324.422 331.578 328 336 328H355.047C329.134 345.208 312 374.627 312 408C312 419.233 314.04 429.973 317.6 440H56ZM376 312H344V280H376V312ZM408 488C363.891 488 328 452.109 328 408C328 363.891 363.891 328 408 328C452.109 328 488 363.891 488 408C488 452.109 452.109 488 408 488Z" fill="#D7761D"/>
<path d="M416 394.219V344H400V394.219C395.238 396.991 392 402.092 392 408C392 408.81 392.122 409.587 392.238 410.364L363 433.75L373 446.25L402.213 422.879C404.012 423.58 405.953 424 408 424C416.836 424 424 416.836 424 408C424 402.092 420.762 396.991 416 394.219Z" fill="#D7761D"/>
<path d="M120 176H72C67.5782 176 64 179.578 64 184V232C64 236.422 67.5782 240 72 240H120C124.422 240 128 236.422 128 232V184C128 179.578 124.422 176 120 176ZM112 224H80V192H112V224Z" fill="#D7761D"/>
<path d="M208 176H160C155.578 176 152 179.578 152 184V232C152 236.422 155.578 240 160 240H208C212.422 240 216 236.422 216 232V184C216 179.578 212.422 176 208 176ZM200 224H168V192H200V224Z" fill="#D7761D"/>
<path d="M296 176H248C243.578 176 240 179.578 240 184V232C240 236.422 243.578 240 248 240H296C300.422 240 304 236.422 304 232V184C304 179.578 300.422 176 296 176ZM288 224H256V192H288V224Z" fill="#D7761D"/>
<path d="M336 240H384C388.422 240 392 236.422 392 232V184C392 179.578 388.422 176 384 176H336C331.578 176 328 179.578 328 184V232C328 236.422 331.578 240 336 240ZM344 192H376V224H344V192Z" fill="#D7761D"/>
<path d="M120 264H72C67.5782 264 64 267.578 64 272V320C64 324.422 67.5782 328 72 328H120C124.422 328 128 324.422 128 320V272C128 267.578 124.422 264 120 264ZM112 312H80V280H112V312Z" fill="#D7761D"/>
<path d="M208 264H160C155.578 264 152 267.578 152 272V320C152 324.422 155.578 328 160 328H208C212.422 328 216 324.422 216 320V272C216 267.578 212.422 264 208 264ZM200 312H168V280H200V312Z" fill="#D7761D"/>
<path d="M296 264H248C243.578 264 240 267.578 240 272V320C240 324.422 243.578 328 248 328H296C300.422 328 304 324.422 304 320V272C304 267.578 300.422 264 296 264ZM288 312H256V280H288V312Z" fill="#D7761D"/>
<path d="M120 352H72C67.5782 352 64 355.578 64 360V408C64 412.422 67.5782 416 72 416H120C124.422 416 128 412.422 128 408V360C128 355.578 124.422 352 120 352ZM112 400H80V368H112V400Z" fill="#D7761D"/>
<path d="M208 352H160C155.578 352 152 355.578 152 360V408C152 412.422 155.578 416 160 416H208C212.422 416 216 412.422 216 408V360C216 355.578 212.422 352 208 352ZM200 400H168V368H200V400Z" fill="#D7761D"/>
<path d="M296 352H248C243.578 352 240 355.578 240 360V408C240 412.422 243.578 416 248 416H296C300.422 416 304 412.422 304 408V360C304 355.578 300.422 352 296 352ZM288 400H256V368H288V400Z" fill="#D7761D"/>
</svg>
