<svg width="512" height="512" viewBox="0 0 512 512" fill="none" xmlns="http://www.w3.org/2000/svg">
<path d="M140 382C140 354.43 117.57 332 90 332C62.43 332 40 354.43 40 382C40 409.57 62.43 432 90 432C117.57 432 140 409.571 140 382ZM90 412C73.458 412 60 398.542 60 382C60 365.458 73.458 352 90 352C106.542 352 120 365.458 120 382C120 398.542 106.542 412 90 412Z" fill="#1F668D"/>
<path d="M306 382C306 354.43 283.57 332 256 332C228.43 332 206 354.43 206 382C206 409.57 228.43 432 256 432C283.57 432 306 409.571 306 382ZM256 412C239.458 412 226 398.542 226 382C226 365.458 239.458 352 256 352C272.542 352 286 365.458 286 382C286 398.542 272.542 412 256 412Z" fill="#1F668D"/>
<path d="M472 382C472 354.43 449.57 332 422 332C394.43 332 372 354.43 372 382C372 409.57 394.43 432 422 432C449.57 432 472 409.571 472 382ZM422 412C405.458 412 392 398.542 392 382C392 365.458 405.458 352 422 352C438.542 352 452 365.458 452 382C452 398.542 438.542 412 422 412Z" fill="#1F668D"/>
<path d="M442 432H402C376.564 432 354.258 445.641 342 465.988C329.742 445.642 307.436 432 282 432H230C204.564 432 182.258 445.641 170 465.988C157.742 445.642 135.436 432 110 432H70C31.402 432 0 463.402 0 502C0 507.522 4.477 512 10 512H211C216.523 512 221 507.522 221 502C221 496.478 216.523 492 211 492H181.004C185.65 469.206 205.854 452 230 452H282C306.146 452 326.349 469.206 330.996 492H301C295.477 492 291 496.478 291 502C291 507.522 295.477 512 301 512H502C507.523 512 512 507.522 512 502C512 463.403 480.598 432 442 432ZM21.005 492C25.651 469.206 45.855 452 70.001 452H110.001C134.147 452 154.35 469.206 158.997 492H21.005ZM353.005 492C357.651 469.206 377.855 452 402.001 452H442.001C466.147 452 486.35 469.206 490.997 492H353.005Z" fill="#1F668D"/>
<path d="M406 230V270C406 275.522 410.477 280 416 280H456C461.523 280 466 275.522 466 270V230C466 216.964 457.639 205.848 446 201.72V90C446 83.225 440.027 80.891 439.927 80.803C439.91 80.796 439.893 80.787 439.876 80.78L260.062 0.862988C257.476 -0.287012 254.525 -0.287012 251.939 0.862988L71.939 80.863C68.328 82.467 66 86.048 66 90C66 93.951 68.327 97.533 71.938 99.138L146 132.055V191.211C146 195.163 148.328 198.744 151.939 200.35L251.939 244.79C253.231 245.364 254.616 245.651 256 245.651C257.384 245.651 258.769 245.364 260.061 244.79L360.061 200.35C363.672 198.745 366 195.163 366 191.211V132.055L426 105.388V201.721C414.361 205.849 406 216.964 406 230ZM446 260H426V230C426 224.486 430.486 220 436 220C441.514 220 446 224.486 446 230V260ZM256 20.944L388.877 80H256C250.477 80 246 84.478 246 90C246 95.522 250.477 100 256 100H388.881L256 159.057L100.621 90.001L256 20.944ZM346 184.711L256 224.707L166 184.711V140.943L251.939 179.138C253.231 179.712 254.616 179.999 256 179.999C257.384 179.999 258.769 179.712 260.061 179.138L346 140.944V184.711Z" fill="#1F668D"/>
<path d="M256 512C261.523 512 266 507.523 266 502C266 496.477 261.523 492 256 492C250.477 492 246 496.477 246 502C246 507.523 250.477 512 256 512Z" fill="#1F668D"/>
</svg>
