<svg id="icons" enable-background="new 0 0 64 64" height="512" viewBox="0 0 64 64" width="512" xmlns="http://www.w3.org/2000/svg"><g><g><path d="m32 6.49c2.76 0 5 2.24 5 5.01 0 2.76-2.24 5-5 5-2.75 0-5-2.24-5-5 0-2.77 2.25-5.01 5-5.01z" fill="#5d9cec"/></g><g><path d="m32 2.49c6.16 0 11.47 3.68 14 9.01-2.53 5.32-7.84 9-14 9s-11.47-3.68-14-9c2.53-5.33 7.84-9.01 14-9.01zm5 9.01c0-2.77-2.24-5.01-5-5.01-2.75 0-5 2.24-5 5.01 0 2.76 2.25 5 5 5 2.76 0 5-2.24 5-5z" fill="#e6e9ed"/></g><g><path d="m55 28.49-46 .01h-.2c-1.01.1-1.8.96-1.8 1.99v27.02h-3v-27.02c0-2.76 2.24-5 5-5h46c2.76 0 5 2.24 5 5v27.02h-3v-27.02c0-1.1-.9-2-2-2z" fill="#da4453"/></g><g><path d="m51 43.51c0 2.79-1.63 5.2-4 6.32-.91.439-1.92.68-3 .68-1.07 0-2.09-.24-3-.68-2.37-1.12-4-3.53-4-6.32v-2.09l2-1.89v-.02s2.67 1.09 5.39 1.09c2.551 0 4.37-.97 4.591-1.09l.019.01 2 1.9z" fill="#eac6bb"/></g><g><path d="m49 39.52-.02-.01c-.088.048-.44.232-.983.436v3.564c0 2.79-1.63 5.2-4 6.32-.473.229-.974.4-1.497.515.484.106.986.165 1.5.165 1.08 0 2.09-.24 3-.68 2.37-1.12 4-3.53 4-6.32v-2.09z" fill="#d3b1a9"/></g><g><path d="m53 57.51h-3.8c-1.04-1.8-2.97-3.01-5.2-3.01 1.66 0 3-.89 3-1.99h3v-.01c1.66 0 3 1.35 3 3z" fill="#e6e9ed"/></g><g><path d="m50 52.5v.01h-2.906c1.614.053 2.903 1.373 2.903 2.99v2.01h3.003v-2.01c0-1.65-1.34-3-3-3z" fill="#ccd1d9"/></g><g><path d="m38.8 57.5c1.04-1.79 2.98-3 5.2-3 2.23 0 4.16 1.21 5.2 3.01h-10.4z" fill="#656d78"/></g><g><path d="m41 49.83c.91.439 1.93.68 3 .68 1.08 0 2.09-.24 3-.68v2.67.01c0 1.101-1.34 1.99-3 1.99s-3-.89-3-1.99z" fill="#eac6bb"/></g><g><path d="m47 49.83c2.37-1.12 4-3.53 4-6.32v-2.09-2.91c0-1.66-1.34-3-3-3v-3h-5c-3.32 0-6 2.681-6 6v2.91 2.09c0 2.79 1.63 5.2 4 6.32v2.68h-3v-.01c-1.66 0-3 1.35-3 3v2.01h-6v-.02-2c0-1.65-1.34-3-3-3v.01h-3v-.01-2.68c2.36-1.109 4-3.52 4-6.31v-.01-2.12-1.37c0-1.98-.76-3.76-2-5.1-1.36-1.48-3.32-2.4-5.5-2.4-4.14 0-7.5 3.35-7.5 7.5v.49c.34.05.68.1 1 .14v2.86.01c0 2.79 1.64 5.19 4 6.31v2.681.01h-3v-.01c-1.66 0-3 1.35-3 3v2 .02h-4v-27.021c0-1.03.79-1.891 1.8-1.99h.2l46-.01c1.1 0 2 .899 2 2v27.02h-4v-2.01c0-1.65-1.34-3-3-3v.01h-3v-.01z" fill="#5d9cec"/></g><g><path d="m51 41.42-2-1.9-.02-.01c-.221.12-2.04 1.09-4.591 1.09-2.72 0-5.39-1.09-5.39-1.09v.021l-2 1.89v-2.91c0-3.319 2.68-6 6-6h5v3c1.66 0 3 1.34 3 3v2.909z" fill="#965353"/></g><g><path d="m48 38.51v1.435c.541-.203.893-.387.98-.435l.02.01 2 1.9v-2.91c0-1.66-1.34-3-3-3v-3h-3v3c0 1.657 1.343 3 3 3z" fill="#844747"/></g><g><path d="m41 52.51c0 1.101 1.34 1.99 3 1.99-2.22 0-4.16 1.21-5.2 3v.01h-3.8v-2.01c0-1.65 1.34-3 3-3v.01z" fill="#e6e9ed"/></g><g><path d="m27 40v1.37c-1.72-2.24-2.76-2.65-4-2.39v-.01l2-4.069c1.24 1.339 2 3.119 2 5.099z" fill="#f6bb42"/></g><g><path d="m23 52.49v.01l-1 1-2-1-2 1-1-1v-.01-2.68c.91.44 1.93.681 3 .681s2.09-.24 3-.681z" fill="#f5f7fa"/></g><g><path d="m49.2 57.51h3.8 4 3l3 4h-62l3-4h3 4 18 6 3.8z" fill="#ed5565"/></g><g><path d="m19.5 32.5c2.18 0 4.14.92 5.5 2.4l-2 4.069v.011c-1.87.38-4.19 2.329-10 1.649-.32-.04-.66-.09-1-.14v-.489c0-4.15 3.36-7.5 7.5-7.5z" fill="#ffce54"/></g><g><path d="m27 43.49v.01c0 2.79-1.64 5.2-4 6.31-.91.44-1.93.681-3 .681s-2.09-.24-3-.681c-2.36-1.119-4-3.52-4-6.31v-.01-2.86c5.81.68 8.13-1.27 10-1.649 1.24-.261 2.28.149 4 2.39z" fill="#eac6bb"/></g><g><path d="m23.997 38.949v4.541.01c0 2.79-1.64 5.2-4 6.31-.473.229-.976.4-1.499.516.485.106.987.165 1.502.165 1.07 0 2.09-.24 3-.681 2.36-1.109 4-3.52 4-6.31v-.01-2.12c-1.246-1.624-2.136-2.278-3.003-2.421z" fill="#d3b1a9"/></g><g><path d="m29 57.49v.02h-18v-.02-2c0-1.65 1.34-3 3-3v.01h3l1 1 2-1 2 1 1-1h3v-.01c1.66 0 3 1.35 3 3z" fill="#e6e9ed"/></g><g><g><path d="m26 52.49v.01h-2.906c1.614.053 2.903 1.373 2.903 2.99v2 .02h3.003v-.02-2c0-1.65-1.34-3-3-3z" fill="#ccd1d9"/></g></g></g></svg>