<svg width="512" height="512" viewBox="0 0 512 512" fill="none" xmlns="http://www.w3.org/2000/svg">
<g clip-path="url(#clip0)">
<path d="M490.5 409.999H475.477C477.404 406.243 478.5 401.993 478.5 397.489L478.49 137.495C478.49 122.332 466.153 109.995 450.99 109.995H410.5V100.835C410.5 93.612 404.624 87.735 397.4 87.735H384.987V50.1C384.987 45.871 382.93 41.882 379.486 39.428C376.041 36.975 371.599 36.335 367.601 37.718L343.977 45.887C340.063 47.241 337.987 51.511 339.34 55.426C340.694 59.34 344.961 61.421 348.879 60.063L369.986 52.764V233.143L263.5 269.968V89.589L318.637 70.522C322.552 69.168 324.627 64.898 323.274 60.983C321.92 57.069 317.654 54.99 313.735 56.346L256 76.311L144.399 37.718C140.401 36.334 135.959 36.975 132.514 39.428C129.07 41.882 127.013 45.871 127.013 50.1V87.734H114.6C107.376 87.734 101.5 93.611 101.5 100.834V110.004H61C45.836 110.004 33.5 122.341 33.5 137.504L33.501 164.175C33.501 168.318 36.859 171.675 41.001 171.675C45.143 171.675 48.501 168.317 48.501 164.175L48.5 137.505C48.5 130.612 54.107 125.005 61 125.005H101.5V140.005H71C69.011 140.005 67.103 140.795 65.697 142.202C64.29 143.608 63.5 145.516 63.5 147.505L63.51 387.499C63.51 391.642 66.868 394.999 71.01 394.999L441 394.989C442.989 394.989 444.897 394.199 446.304 392.792C447.71 391.386 448.5 389.478 448.5 387.489L448.49 147.495C448.49 143.352 445.132 139.995 440.99 139.995H410.5V124.995H450.99C457.883 124.995 463.49 130.602 463.49 137.495L463.5 397.489C463.5 404.382 457.893 409.989 451 409.989L61.01 409.999C54.117 409.999 48.51 404.392 48.51 397.499L48.503 196.269C48.503 192.126 45.145 188.769 41.003 188.769C36.861 188.769 33.503 192.127 33.503 196.269L33.51 397.499C33.51 401.999 34.603 406.246 36.528 409.999H21.5C9.645 409.999 0 419.644 0 431.499V453.499C0 465.355 9.645 475 21.5 475H319.681C323.824 475 327.181 471.643 327.181 467.5C327.181 463.357 323.824 460 319.681 460H21.5C17.916 460 15 457.084 15 453.5V431.5C15 427.916 17.916 425 21.5 425H205.5V430.27C205.5 440.598 213.903 449.001 224.231 449.001H287.77C298.098 449.001 306.5 440.599 306.5 430.27V425H490.5C494.084 425 497 427.916 497 431.5V453.5C497 457.084 494.084 460 490.5 460H352.425C348.282 460 344.925 463.357 344.925 467.5C344.925 471.643 348.282 475 352.425 475H490.5C502.355 475 512 465.355 512 453.5V431.5C512 419.644 502.355 409.999 490.5 409.999ZM376.169 246.876C381.443 245.051 384.987 240.075 384.987 234.495V102.735H395.5V272.997H300.636L376.169 246.876ZM142.013 52.764L248.5 89.589V269.968L142.013 233.143V52.764ZM116.5 102.735H127.013V234.496C127.013 240.076 130.557 245.052 135.833 246.878L211.364 272.998H116.5V102.735ZM433.49 154.995L433.5 379.989L78.509 379.999L78.5 155.005H101.5V274.897C101.5 282.12 107.376 287.997 114.6 287.997H397.4C404.624 287.997 410.5 282.12 410.5 274.897V154.995H433.49ZM291.5 430.269C291.5 432.326 289.826 434 287.77 434H224.231C222.174 434 220.5 432.326 220.5 430.269V424.999H291.5V430.269Z" fill="#1F668D"/>
<path d="M354.512 309.387H157.489C153.347 309.387 149.989 312.744 149.989 316.887C149.989 321.03 153.347 324.387 157.489 324.387H354.512C358.655 324.387 362.012 321.03 362.012 316.887C362.012 312.744 358.654 309.387 354.512 309.387Z" fill="#1F668D"/>
<path d="M285.263 341.202H157.489C153.347 341.202 149.989 344.559 149.989 348.702C149.989 352.845 153.347 356.202 157.489 356.202H285.263C289.406 356.202 292.763 352.845 292.763 348.702C292.763 344.559 289.405 341.202 285.263 341.202Z" fill="#1F668D"/>
</g>
<defs>
<clipPath id="clip0">
<rect width="512" height="512" fill="white"/>
</clipPath>
</defs>
</svg>
