<svg width="496" height="496" viewBox="0 0 496 496" fill="none" xmlns="http://www.w3.org/2000/svg">
<path d="M472 0H24C10.768 0 0 10.768 0 24V328C0 341.232 10.768 352 24 352H148.896L100.896 496H165.76L181.76 448H314.224L330.224 496H395.088L347.088 352H472C485.232 352 496 341.232 496 328V24C496 10.768 485.232 0 472 0ZM154.232 480H123.096L165.768 352H196.904L154.232 480ZM187.096 432L192.432 416H303.568L308.904 432H187.096ZM197.768 400L213.768 352H282.232L298.232 400H197.768ZM372.904 480H341.768L299.104 352H330.24L372.904 480ZM480 288H448V280C448 266.768 437.232 256 424 256H360C346.768 256 336 266.768 336 280V288H64V304H480V328C480 332.416 476.408 336 472 336H24C19.592 336 16 332.416 16 328V304H48V288H16V24C16 19.584 19.592 16 24 16H472C476.408 16 480 19.584 480 24V288ZM432 280V288H352V280C352 275.584 355.592 272 360 272H424C428.408 272 432 275.584 432 280Z" fill="#1F668D"/>
<path d="M104 88V72H48V184H104V168H64V136H104V120H64V88H104Z" fill="#1F668D"/>
<path d="M200 104H136V120H200V104Z" fill="#1F668D"/>
<path d="M200 136H136V152H200V136Z" fill="#1F668D"/>
<path d="M296 104C289.832 104 284.256 106.408 280 110.24C275.744 106.4 270.168 104 264 104C257.832 104 252.256 106.408 248 110.24C243.744 106.4 238.168 104 232 104V120C236.408 120 240 123.584 240 128V136V160H256V136V128C256 123.584 259.592 120 264 120C268.408 120 272 123.584 272 128V160H288V128C288 123.584 291.592 120 296 120C300.408 120 304 123.584 304 128V160H320V128C320 114.768 309.232 104 296 104Z" fill="#1F668D"/>
<path d="M368 120H376V104H368C350.352 104 336 118.352 336 136C336 153.648 350.352 168 368 168H376V152H368C359.176 152 352 144.824 352 136C352 127.176 359.176 120 368 120Z" fill="#1F668D"/>
<path d="M438.4 91.2C444.408 86.696 448 79.52 448 72C448 58.768 437.232 48 424 48C410.768 48 400 58.768 400 72H416C416 67.584 419.592 64 424 64C428.408 64 432 67.584 432 72C432 74.504 430.808 76.896 428.8 78.4L400 100V120H448V104H421.336L438.4 91.2Z" fill="#1F668D"/>
</svg>
