<svg width="478" height="512" viewBox="0 0 478 512" fill="none" xmlns="http://www.w3.org/2000/svg">
<path d="M464.878 58.2069L243.301 0.529875C240.557 -0.176125 237.412 -0.177125 234.701 0.529875C225.437 2.94088 20.7553 56.2189 13.1233 58.2039C4.7263 60.3899 -0.694695 68.5289 0.524305 77.1199L20.0263 214.523C37.9783 341.042 116.637 451.723 231.11 510.063C231.117 510.066 231.125 510.07 231.132 510.074C235.826 512.502 241.476 512.78 246.87 510.074C246.877 510.071 246.884 510.067 246.891 510.064C361.066 451.87 439.972 341.402 457.974 214.524L477.476 77.1229C478.697 68.5309 473.275 60.3919 464.878 58.2069ZM424.18 209.728C409.069 316.226 346.971 410.07 256.069 465.824V39.1249L441.542 87.4039L424.18 209.728Z" fill="#1F668D"/>
</svg>
