<svg id="Capa_1" enable-background="new 0 0 512 512" height="512" viewBox="0 0 512 512" width="512" xmlns="http://www.w3.org/2000/svg"><g><g><path d="m481 270h-450v-255h450z" fill="#f3f5f9"/></g><path d="m256 15h225v255h-225z" fill="#e1e6f0"/><g id="Seminar_1_"><g><path d="m75 392c-24.814 0-45-20.186-45-45s20.186-45 45-45 45 20.186 45 45-20.186 45-45 45z" fill="#ffd9b3"/></g><g><path d="m150 512h-150v-45c0-41.353 33.633-75 75-75s75 33.647 75 75z" fill="#6cf"/></g><g><path d="m301 392h-90v-45c0-24.814 20.186-45 45-45s45 20.186 45 45z" fill="#ffd9b3"/></g><g><path d="m437 392c-24.814 0-45-20.186-45-45s20.186-45 45-45 45 20.186 45 45-20.186 45-45 45z" fill="#fb9"/></g><g><path d="m512 512h-150v-45c0-41.353 33.633-75 75-75s75 33.647 75 75z" fill="#59abff"/></g><g><path d="m91 105h30v120h-30z" fill="#ff5959"/></g><g><path d="m151 75h30v150h-30z" fill="#ff5959"/></g><g><path d="m211 135h30v90h-30z" fill="#ff5959"/></g><g><path d="m301 75h120v30h-120z" fill="#443d66"/></g><g><path d="m301 135h120v30h-120z" fill="#443d66"/></g><g><path d="m301 195h120v30h-120z" fill="#443d66"/></g></g><g><path d="m0 0h512v30h-512z" fill="#5b5b8c"/></g><path d="m301 392v-45c0-24.814-20.186-45-45-45v90z" fill="#fb9"/><g><path d="m331 512h-150v-45c0-41.353 33.633-75 75-75s75 33.647 75 75z" fill="#ff5959"/></g><path d="m331 512v-45c0-41.353-33.633-75-75-75v120z" fill="#e63a57"/><path d="m256 0h256v30h-256z" fill="#443d66"/></g></svg>